HIERARCHY
ROOT pelvis
{
	OFFSET 0.000000 0.000000 0.000000
	CHANNELS 6 Xposition Yposition Zposition Zrotation Xrotation Yrotation
	JOINT lfemur
	{
		OFFSET 11.446000 0.000000 0.000000
		CHANNELS 3 Zrotation Xrotation Yrotation
		JOINT ltibia
		{
			OFFSET 0.000000 -42.030400 0.000000
			CHANNELS 3 Zrotation Xrotation Yrotation
			JOINT lfoot
			{
				OFFSET 0.000000 -39.930200 0.000000
				CHANNELS 3 Zrotation Xrotation Yrotation
				JOINT ltoes
				{
					OFFSET 0.000000 0.000000 11.775800
					CHANNELS 3 Zrotation Xrotation Yrotation
					End Site
					{
					    OFFSET 0.000000 0.000000 5.000000
					}
				}
			}
		}
	}
	JOINT rfemur
	{
		OFFSET -11.446000 0.000000 0.000000
		CHANNELS 3 Zrotation Xrotation Yrotation
		JOINT rtibia
		{
			OFFSET 0.000000 -42.030400 0.000000
			CHANNELS 3 Zrotation Xrotation Yrotation
			JOINT rfoot
			{
				OFFSET 0.000000 -39.930200 0.000000
				CHANNELS 3 Zrotation Xrotation Yrotation
				JOINT rtoes
				{
					OFFSET 0.000000 0.000000 11.775800
					CHANNELS 3 Zrotation Xrotation Yrotation
					End Site
					{
					    OFFSET 0.000000 0.000000 5.000000
					}
				}
			}
		}
	}
	JOINT thorax
	{
		OFFSET 0.000000 11.255600 -5.000000
		CHANNELS 3 Zrotation Xrotation Yrotation
		JOINT head
		{
			OFFSET 0.000000 43.799300 0.000000
			CHANNELS 3 Zrotation Xrotation Yrotation
			End Site
			{
			    OFFSET 0.000000 5.000000 0.000000
			}
		}
		JOINT lclavicle
		{
			OFFSET 0.000000 39.863000 0.000000
			CHANNELS 3 Zrotation Xrotation Yrotation
			JOINT lhumerus
			{
				OFFSET 17.380600 4.958300 0.000000
				CHANNELS 3 Zrotation Xrotation Yrotation
				JOINT lradius
				{
					OFFSET 0.000000 -27.561300 0.000000
					CHANNELS 3 Zrotation Xrotation Yrotation
					JOINT lhand
					{
						OFFSET 0.000000 -26.933000 0.000000
						CHANNELS 3 Zrotation Xrotation Yrotation
						End Site
						{
						    OFFSET 0.000000 -5.000000 0.000000
						}
					}
				}
			}
		}
		JOINT rclavicle
		{
			OFFSET 0.000000 39.863000 0.000000
			CHANNELS 3 Zrotation Xrotation Yrotation
			JOINT rhumerus
			{
				OFFSET -17.380600 4.958300 0.000000
				CHANNELS 3 Zrotation Xrotation Yrotation
				JOINT rradius
				{
					OFFSET 0.000000 -27.561300 0.000000
					CHANNELS 3 Zrotation Xrotation Yrotation
					JOINT rhand
					{
						OFFSET 0.000000 -26.933000 0.000000
						CHANNELS 3 Zrotation Xrotation Yrotation
						End Site
						{
						    OFFSET 0.000000 -5.000000 0.000000
						}
					}
				}
			}
		}
	}
}
MOTION
Frames:	11
Frame Time:	0.0333333
25.378000 85.342300 -10.524800 -6.679157 2.452403 63.775759 -10.283569 -10.047242 18.705631 -0.000000 28.560688 0.000000 -0.000000 -5.924050 4.857132 0.000000 -1.359059 -0.000000 10.548825 -29.329159 -22.232314 -0.000000 24.415519 0.000000 -0.000000 12.563154 -21.821648 0.000000 -29.503982 0.000000 -11.225803 16.520915 -13.287919 44.317063 5.220640 -38.960990 -5.419974 0.000000 -6.583272 21.320436 -5.529665 -29.092057 0.000004 -41.904434 -45.773700 6.095622 -10.460655 -0.000000 26.407466 0.000000 -2.554116 -46.090567 1.394377 5.948455 0.000001 -44.128173 31.339745 18.599265 -9.720212 0.000000 
28.011700 84.379100 -10.941200 -4.876382 3.211533 62.324226 -11.360894 -9.871304 20.350872 0.000000 34.153822 -0.000000 0.000000 -5.465002 3.403547 0.000000 -1.410918 -0.000000 10.704650 -25.999594 -16.702815 -0.000000 22.455510 -0.000000 -0.000000 5.007440 -26.114719 -0.000000 -29.484259 -0.000000 -10.009591 15.373547 -13.543906 43.670995 3.961422 -42.470996 -6.063717 -0.000000 -5.878477 21.723556 -4.573652 -36.674395 0.000003 -48.565240 -43.889977 6.742909 -10.653663 0.000000 26.994451 0.000000 -2.234828 -44.717822 -2.005366 8.976349 -0.000001 -45.864572 29.840824 18.635199 -9.734881 0.000000 
30.511500 83.819700 -11.330200 -3.742104 2.482743 59.963761 -10.592696 -9.986332 21.696838 -0.000000 40.139432 0.000000 -0.000000 -3.772132 1.714488 -0.000000 -1.500762 -0.000000 10.867763 -23.686682 -13.522501 0.000000 23.578817 -0.000000 0.000000 0.211425 -26.396649 -0.000000 -29.477231 0.000000 -6.781947 14.544942 -13.297824 42.419905 2.827681 -45.458102 -6.902470 0.000000 -5.022581 22.767449 -3.876355 -40.994761 0.000002 -56.169693 -44.165457 5.994042 -11.798331 -0.000000 27.544387 -0.000000 -0.490345 -43.528084 -5.181956 11.942990 0.000002 -45.989126 30.486136 18.153513 -9.575482 -0.000000 
32.766800 83.862900 -11.639700 -2.999575 1.494950 56.655483 -8.372256 -11.237894 23.659671 0.000000 47.662836 -0.000000 0.000000 1.071200 -1.898288 0.000000 -1.732778 -0.000000 10.250405 -22.703511 -14.178818 0.000000 26.776915 -0.000000 0.000000 -0.347615 -23.145591 -0.000000 -29.481695 0.000000 -3.673941 14.202883 -12.655130 41.922855 1.819699 -47.630967 -7.022418 0.000000 -3.831591 23.514004 -3.914316 -43.185481 0.000009 -62.155686 -44.664885 6.169696 -12.520922 0.000000 28.655406 0.000000 1.937368 -42.807413 -8.549636 16.630259 -0.000000 -45.105571 31.360688 17.657929 -9.411814 0.000000 
34.658300 84.011100 -11.672700 -2.096542 1.108350 52.537837 -6.584639 -13.683135 23.276374 -0.000000 56.121152 -0.000000 -0.000000 4.276726 -3.342440 -0.000000 -1.798990 -0.000000 9.773730 -20.774321 -14.158692 -0.000000 27.421817 0.000000 0.000000 -0.919426 -19.827168 -0.000000 -29.486418 -0.000000 -2.303106 14.086965 -11.695133 41.967099 1.347270 -48.189020 -5.470500 -0.000000 -3.255895 23.735395 -3.329673 -43.089151 -0.000005 -67.143855 -44.078084 6.585139 -12.887275 0.000000 29.492559 0.000000 3.436663 -40.518714 -12.671946 22.738852 -0.000000 -43.837169 31.961898 16.983107 -9.185116 -0.000000 
36.236000 84.296900 -11.762100 -1.302161 0.695633 47.907938 -5.061122 -16.271656 21.792944 -0.000000 63.740343 -0.000000 0.000000 5.080813 4.616270 0.000000 -1.670527 0.000000 9.946994 -18.649700 -11.712272 0.000000 26.914062 -0.000000 0.000000 -0.655013 -17.981879 -0.000000 -29.487671 -0.000000 -1.123310 14.099121 -10.660479 41.648107 1.235823 -48.003291 -4.736025 0.000000 -2.830891 25.770382 -2.437480 -42.474318 -0.000008 -71.735881 -44.445926 7.600532 -12.901363 -0.000000 29.781740 -0.000000 3.925043 -36.723456 -16.386318 28.701540 -0.000000 -43.541634 32.116159 16.503942 -9.026480 0.000000 
37.851700 84.841600 -11.957700 0.118098 0.523309 43.165002 -4.501951 -17.602589 19.077356 -0.000000 68.185847 -0.000000 0.000000 4.349068 12.092395 -0.000000 -1.451022 0.000000 9.064691 -16.424350 -9.533897 -0.000000 26.431149 -0.000000 -0.000000 0.028539 -16.139037 -0.000000 -29.491216 -0.000000 -0.762760 14.871984 -10.219034 40.843640 1.432960 -46.567618 -4.900813 -0.000000 -2.227488 28.886406 -1.178408 -41.055222 -0.000002 -75.541814 -43.005082 8.195603 -12.749895 -0.000000 29.799315 -0.000000 4.787993 -32.362291 -18.534175 34.234293 -0.000001 -44.207380 31.446575 16.973381 -9.186710 -0.000000 
39.219800 85.441100 -12.444000 1.012558 1.334017 37.994162 -4.657738 -19.665628 15.208504 -0.000000 69.380263 0.000000 0.000000 3.210612 15.851767 -0.000000 -1.344896 -0.000000 7.614011 -15.521163 -8.070340 -0.000000 25.397294 -0.000000 0.000000 0.920098 -13.242075 -0.000000 -29.494399 -0.000000 -0.766849 14.734863 -8.960943 39.751735 1.396239 -45.471361 -5.396742 -0.000000 -1.654142 31.601127 -0.381066 -39.686182 -0.000000 -77.195669 -41.895727 8.932683 -12.895252 0.000000 29.044103 -0.000000 6.150741 -28.324865 -18.524308 38.908837 0.000001 -46.255324 29.785199 17.271768 -9.291086 0.000000 
40.572100 86.052200 -12.995900 1.371554 2.320317 32.410490 -4.405140 -21.081200 11.841164 -0.000000 66.774921 0.000000 0.000000 1.961348 17.691105 -0.000000 -1.319452 -0.000000 6.274248 -15.015602 -7.821829 -0.000000 23.516674 -0.000000 0.000000 2.162950 -9.225699 -0.000000 -29.500983 0.000000 -0.138667 13.963633 -6.901696 38.021174 1.271102 -44.793914 -6.605769 0.000000 -0.740978 34.044910 -0.083572 -39.116278 -0.000005 -77.263213 -41.411643 9.994187 -12.914282 0.000000 28.107586 0.000000 7.795892 -25.821110 -16.817178 42.825333 -0.000001 -49.385428 28.661322 16.661409 -9.086694 -0.000000 
41.743800 86.609400 -13.622600 1.372467 3.583340 26.133026 -3.430194 -21.925140 9.728278 -0.000000 61.191548 -0.000000 -0.000000 1.122424 18.892579 -0.000000 -1.308497 0.000000 5.646524 -15.289467 -6.116690 0.000000 21.527571 0.000000 -0.000000 3.934388 -5.649623 -0.000000 -29.505764 0.000000 0.758398 13.123087 -4.175040 36.119016 0.943646 -44.338461 -7.992587 0.000000 0.372429 36.218807 0.429832 -38.365111 0.000003 -77.233927 -40.629850 11.393570 -12.983459 -0.000000 26.873401 -0.000000 9.489060 -24.135765 -15.056280 46.609112 -0.000001 -52.540487 26.060793 16.240024 -8.943120 -0.000000 
43.069500 87.039000 -14.306200 1.786086 4.783851 20.304212 -3.466522 -21.601905 6.385190 -0.000000 53.572415 -0.000000 0.000000 0.662458 18.926639 0.000000 -1.302008 -0.000000 4.691447 -15.941551 -4.684051 -0.000000 20.167540 -0.000000 -0.000000 5.265037 -2.522895 -0.000000 -29.510515 -0.000000 1.519807 12.731937 -2.075555 34.202377 0.399657 -43.513031 -9.358318 0.000000 1.435962 38.216305 2.175447 -36.647456 0.000003 -78.213639 -40.867121 13.019460 -14.077895 0.000000 25.423519 -0.000000 11.328658 -22.512139 -13.521177 48.416708 -0.000002 -53.647880 24.210309 16.045367 -8.879823 0.000000 
